#define result-1_width 10
#define result-1_height 10
static char result-1_bits[] = {
  0x36, 0x01, 0xB6, 0x01, 0xB6, 0x01, 0xB6, 0x01, 0xFF, 0x01, 0xB6, 0x01, 
  0xB6, 0x01, 0x36, 0x01, 0xB6, 0x01, 0x00, 0x00, };
