#define result-1_width 10
#define result-1_height 10
static char result-1_bits[] = {
  0xFE, 0x01, 0x12, 0x01, 0x5A, 0x01, 0xFE, 0x01, 0x10, 0x00, 0xFF, 0x01, 
  0xFF, 0x01, 0x02, 0x01, 0x40, 0x00, 0x00, 0x00, };
