<?xml version="1.0" encoding="UTF-8" standalone="no"?>
<!-- Created with Inkscape (http://www.inkscape.org/) -->

<svg
   xmlns:dc="http://purl.org/dc/elements/1.1/"
   xmlns:cc="http://creativecommons.org/ns#"
   xmlns:rdf="http://www.w3.org/1999/02/22-rdf-syntax-ns#"
   xmlns:svg="http://www.w3.org/2000/svg"
   xmlns="http://www.w3.org/2000/svg"
   xmlns:xlink="http://www.w3.org/1999/xlink"
   xmlns:sodipodi="http://sodipodi.sourceforge.net/DTD/sodipodi-0.dtd"
   xmlns:inkscape="http://www.inkscape.org/namespaces/inkscape"
   width="1024"
   height="1024"
   viewBox="0 0 270.93334 270.93333"
   version="1.1"
   id="svg8"
   inkscape:version="0.91 r13725"
   sodipodi:docname="icon_pile_gradient.svg"
   inkscape:export-filename="/home/lbphacker/temp/tpt-logo/icon_circle.png"
   inkscape:export-xdpi="96"
   inkscape:export-ydpi="96">
  <defs
     id="defs2">
    <linearGradient
       inkscape:collect="always"
       id="linearGradient5602">
      <stop
         style="stop-color:#ff7a4c;stop-opacity:1"
         offset="0"
         id="stop5604" />
      <stop
         style="stop-color:#ffff4a;stop-opacity:1"
         offset="1"
         id="stop5606" />
    </linearGradient>
    <filter
       inkscape:collect="always"
       style="color-interpolation-filters:sRGB"
       id="filter5229"
       x="-0.099935167"
       width="1.1998703"
       y="-0.091193162"
       height="1.1823863">
      <feGaussianBlur
         inkscape:collect="always"
         stdDeviation="7.6262206"
         id="feGaussianBlur5231" />
    </filter>
    <linearGradient
       inkscape:collect="always"
       xlink:href="#linearGradient5602"
       id="linearGradient5608"
       x1="623.16376"
       y1="313.71109"
       x2="835.82587"
       y2="100.99124"
       gradientUnits="userSpaceOnUse" />
  </defs>
  <sodipodi:namedview
     id="base"
     pagecolor="#ffffff"
     bordercolor="#666666"
     borderopacity="1.0"
     inkscape:pageopacity="0"
     inkscape:pageshadow="2"
     inkscape:zoom="0.3535534"
     inkscape:cx="218.91161"
     inkscape:cy="713.0457"
     inkscape:document-units="px"
     inkscape:current-layer="layer1"
     showgrid="false"
     units="px"
     inkscape:window-width="1366"
     inkscape:window-height="705"
     inkscape:window-x="-4"
     inkscape:window-y="-4"
     inkscape:window-maximized="1"
     inkscape:snap-global="false"
     showguides="false"
     fit-margin-top="0"
     fit-margin-left="0"
     fit-margin-bottom="0"
     fit-margin-right="0" />
  <metadata
     id="metadata5">
    <rdf:RDF>
      <cc:Work
         rdf:about="">
        <dc:format>image/svg+xml</dc:format>
        <dc:type
           rdf:resource="http://purl.org/dc/dcmitype/StillImage" />
        <dc:title></dc:title>
      </cc:Work>
    </rdf:RDF>
  </metadata>
  <g
     inkscape:label="Layer 1"
     inkscape:groupmode="layer"
     id="layer1"
     transform="translate(-594.1217,-81.893738)">
    <g
       id="g5610">
      <path
         transform="matrix(1.1416809,0,0,1.1416809,-103.36921,-12.109215)"
         inkscape:connector-curvature="0"
         id="path950"
         d="m 729.5891,100.64025 a 6.8536343,6.8536343 0 0 0 -6.8539,6.85333 6.8536343,6.8536343 0 0 0 6.8539,6.85384 6.8536343,6.8536343 0 0 0 6.8533,-6.85384 6.8536343,6.8536343 0 0 0 -6.8533,-6.85333 z m 0,27.34045 c -3.7851,0 -6.8534,3.06823 -6.8534,6.85333 l 0,14.43478 c 0,3.78508 3.0683,6.85384 6.8534,6.85384 3.7851,0 6.8538,-3.06876 6.8538,-6.85384 l 0,-14.43478 c 0,-3.7851 -3.0687,-6.85333 -6.8538,-6.85333 z m 26.5585,18.38389 a 6.8536343,6.8536343 0 0 0 -6.8538,6.85384 6.8536343,6.8536343 0 0 0 6.8538,6.85333 6.8536343,6.8536343 0 0 0 6.8539,-6.85333 6.8536343,6.8536343 0 0 0 -6.8539,-6.85384 z m -62.3124,22.72367 a 6.8536343,6.8536343 0 0 0 -6.8539,6.85333 6.8536343,6.8536343 0 0 0 6.8539,6.85385 6.8536343,6.8536343 0 0 0 6.8538,-6.85385 6.8536343,6.8536343 0 0 0 -6.8538,-6.85333 z m 35.7544,0.66715 a 6.8536343,6.8536343 0 0 0 -6.8539,6.85384 6.8536343,6.8536343 0 0 0 6.8539,6.85385 6.8536343,6.8536343 0 0 0 6.8533,-6.85385 6.8536343,6.8536343 0 0 0 -6.8533,-6.85384 z m -0.1886,27.342 c -3.3028,0.0484 -6.4566,1.38153 -8.7928,3.71656 l -78.8505,78.85152 c -7.9961,8.00073 -2.3327,21.6754 8.9788,21.67982 l 157.7032,0 c 11.312,-0.003 16.9767,-13.67855 8.9802,-21.67982 l -78.8515,-78.85152 c -2.4281,-2.42693 -5.7354,-3.76761 -9.168,-3.71656 z m 0.7482,8.51369 0,0 c 0.4485,0 0.8969,0.044 1.3385,0.13074 1.4334,0.202 2.8158,0.85351 3.9181,1.95595 l 74.9995,74.99956 c 2.6995,2.6994 2.6995,7.07622 0,9.77563 -2.699,2.69939 -7.0755,2.69939 -9.7751,0 l -70.3275,-70.32749 -11.8003,11.80031 c -2.6993,2.69937 -7.076,2.6993 -9.7756,0 -2.6992,-2.69951 -2.6988,-7.07626 0,-9.77563 l 16.5344,-16.53439 c 1.3498,-1.34968 3.1186,-2.02467 4.8875,-2.02468 z m 55.2437,1.29294 a 6.8536343,6.8536343 0 0 0 -6.8533,6.85385 6.8536343,6.8536343 0 0 0 6.8533,6.85333 6.8536343,6.8536343 0 0 0 6.8538,-6.85333 6.8536343,6.8536343 0 0 0 -6.8538,-6.85385 z m -115.8803,12.52999 a 6.8536343,6.8536343 0 0 0 -6.8538,6.85384 6.8536343,6.8536343 0 0 0 6.8538,6.85333 6.8536343,6.8536343 0 0 0 6.8534,-6.85333 6.8536343,6.8536343 0 0 0 -6.8534,-6.85384 z m 27.0614,18.73839 a 6.8536343,6.8536343 0 0 1 6.8534,6.85333 6.8536343,6.8536343 0 0 1 -6.8534,6.85384 6.8536343,6.8536343 0 0 1 -6.8538,-6.85384 6.8536343,6.8536343 0 0 1 6.8538,-6.85333 z m -27.4784,26.01701 a 6.8536343,6.8536343 0 0 1 6.8538,6.85333 6.8536343,6.8536343 0 0 1 -6.8538,6.85385 6.8536343,6.8536343 0 0 1 -6.8533,-6.85385 6.8536343,6.8536343 0 0 1 6.8533,-6.85333 z"
         style="opacity:0.90700001;fill:#000000;fill-opacity:1;stroke:none;stroke-width:13.70695019;stroke-linecap:round;stroke-linejoin:round;stroke-miterlimit:4;stroke-dasharray:none;stroke-opacity:1;filter:url(#filter5229)" />
      <path
         style="opacity:1;fill:url(#linearGradient5608);fill-opacity:1;stroke:#4d361f;stroke-width:3.96875027;stroke-linecap:round;stroke-linejoin:round;stroke-miterlimit:4;stroke-dasharray:none;stroke-opacity:1;fill-rule:nonzero"
         d="m 729.58874,102.78984 a 7.8246635,7.8246635 0 0 0 -7.82496,7.82432 7.8246635,7.8246635 0 0 0 7.82496,7.82489 7.8246635,7.8246635 0 0 0 7.82429,-7.82489 7.8246635,7.8246635 0 0 0 -7.82429,-7.82432 z m 0,31.21407 c -4.32137,0 -7.82439,3.50293 -7.82439,7.82431 l 0,16.47992 c 0,4.32136 3.50302,7.8249 7.82439,7.8249 4.32138,0 7.82486,-3.50354 7.82486,-7.8249 l 0,-16.47992 c 0,-4.32138 -3.50348,-7.82431 -7.82486,-7.82431 z m 30.32135,20.98853 a 7.8246635,7.8246635 0 0 0 -7.82486,7.82491 7.8246635,7.8246635 0 0 0 7.82486,7.82431 7.8246635,7.8246635 0 0 0 7.82496,-7.82431 7.8246635,7.8246635 0 0 0 -7.82496,-7.82491 z m -71.14088,25.94318 a 7.8246635,7.8246635 0 0 0 -7.82497,7.82432 7.8246635,7.8246635 0 0 0 7.82497,7.82491 7.8246635,7.8246635 0 0 0 7.82485,-7.82491 7.8246635,7.8246635 0 0 0 -7.82485,-7.82432 z m 40.82011,0.76168 a 7.8246635,7.8246635 0 0 0 -7.82497,7.82489 7.8246635,7.8246635 0 0 0 7.82497,7.82492 7.8246635,7.8246635 0 0 0 7.82428,-7.82492 7.8246635,7.8246635 0 0 0 -7.82428,-7.82489 z m -0.21533,31.21584 c -3.77074,0.0553 -7.37137,1.57726 -10.03856,4.24312 l -90.02211,90.02327 c -9.129,9.1343 -2.6632,24.7464 10.25092,24.75145 l 180.04673,0 c 12.91469,-0.004 19.38198,-15.61654 10.25253,-24.75145 l -90.02326,-90.02327 c -2.77211,-2.77078 -6.54799,-4.30141 -10.46693,-4.24312 z m 0.85421,9.71992 0,0 c 0.51205,0 1.02398,0.0503 1.52815,0.14926 1.63648,0.23062 3.21474,0.97444 4.47322,2.23307 l 85.62549,85.62556 c 3.08197,3.08186 3.08197,8.07879 0,11.16066 -3.0814,3.08183 -8.07797,3.08183 -11.16005,0 l -80.29156,-80.29155 -13.47218,13.47219 c -3.08173,3.08181 -8.07853,3.08173 -11.16061,0 -3.08163,-3.08199 -3.08117,-8.07884 0,-11.16066 l 18.877,-18.87699 c 1.54104,-1.5409 3.56045,-2.31153 5.57997,-2.31154 z m 63.07068,1.47613 a 7.8246635,7.8246635 0 0 0 -7.82428,7.8249 7.8246635,7.8246635 0 0 0 7.82428,7.82432 7.8246635,7.8246635 0 0 0 7.82486,-7.82432 7.8246635,7.8246635 0 0 0 -7.82486,-7.8249 z m -132.29832,14.30524 a 7.8246635,7.8246635 0 0 0 -7.82486,7.8249 7.8246635,7.8246635 0 0 0 7.82486,7.82432 7.8246635,7.8246635 0 0 0 7.82439,-7.82432 7.8246635,7.8246635 0 0 0 -7.82439,-7.8249 z m 30.89547,21.39326 a 7.8246635,7.8246635 0 0 1 7.8244,7.82432 7.8246635,7.8246635 0 0 1 -7.8244,7.8249 7.8246635,7.8246635 0 0 1 -7.82484,-7.8249 7.8246635,7.8246635 0 0 1 7.82484,-7.82432 z m -31.37155,29.70312 a 7.8246635,7.8246635 0 0 1 7.82484,7.82432 7.8246635,7.8246635 0 0 1 -7.82484,7.82491 7.8246635,7.8246635 0 0 1 -7.82428,-7.82491 7.8246635,7.8246635 0 0 1 7.82428,-7.82432 z"
         id="path952"
         inkscape:connector-curvature="0" />
    </g>
  </g>
</svg>
