<?xml version="1.0" encoding="UTF-8" standalone="no"?>
<!-- Created with Inkscape (http://www.inkscape.org/) -->

<svg
   xmlns:dc="http://purl.org/dc/elements/1.1/"
   xmlns:cc="http://creativecommons.org/ns#"
   xmlns:rdf="http://www.w3.org/1999/02/22-rdf-syntax-ns#"
   xmlns:svg="http://www.w3.org/2000/svg"
   xmlns="http://www.w3.org/2000/svg"
   xmlns:sodipodi="http://sodipodi.sourceforge.net/DTD/sodipodi-0.dtd"
   xmlns:inkscape="http://www.inkscape.org/namespaces/inkscape"
   width="1024"
   height="1024"
   viewBox="0 0 270.93334 270.93333"
   version="1.1"
   id="svg8"
   inkscape:version="0.92.3 (2405546, 2018-03-11)"
   sodipodi:docname="icon_circle.svg"
   inkscape:export-filename="/home/lbphacker/temp/tpt-logo/icon_circle.png"
   inkscape:export-xdpi="96"
   inkscape:export-ydpi="96">
  <defs
     id="defs2">
    <filter
       inkscape:collect="always"
       style="color-interpolation-filters:sRGB"
       id="filter5229"
       x="-0.099935167"
       width="1.1998703"
       y="-0.091193162"
       height="1.1823863">
      <feGaussianBlur
         inkscape:collect="always"
         stdDeviation="7.6262206"
         id="feGaussianBlur5231" />
    </filter>
  </defs>
  <sodipodi:namedview
     id="base"
     pagecolor="#ffffff"
     bordercolor="#666666"
     borderopacity="1.0"
     inkscape:pageopacity="0"
     inkscape:pageshadow="2"
     inkscape:zoom="0.66"
     inkscape:cx="328.01066"
     inkscape:cy="553.26531"
     inkscape:document-units="px"
     inkscape:current-layer="g986"
     showgrid="false"
     units="px"
     inkscape:window-width="1920"
     inkscape:window-height="982"
     inkscape:window-x="0"
     inkscape:window-y="24"
     inkscape:window-maximized="1"
     inkscape:snap-global="false"
     showguides="false"
     fit-margin-top="0"
     fit-margin-left="0"
     fit-margin-bottom="0"
     fit-margin-right="0" />
  <metadata
     id="metadata5">
    <rdf:RDF>
      <cc:Work
         rdf:about="">
        <dc:format>image/svg+xml</dc:format>
        <dc:type
           rdf:resource="http://purl.org/dc/dcmitype/StillImage" />
        <dc:title />
      </cc:Work>
    </rdf:RDF>
  </metadata>
  <g
     inkscape:label="Layer 1"
     inkscape:groupmode="layer"
     id="layer1"
     transform="translate(-594.1217,-81.893738)">
    <g
       id="g986">
      <circle
         r="135.46667"
         cy="217.36041"
         cx="729.58838"
         id="circle948"
         style="opacity:1;fill:#ffd090;fill-opacity:1;stroke:none;stroke-width:1.74795687;stroke-linecap:butt;stroke-linejoin:miter;stroke-miterlimit:4;stroke-dasharray:none;stroke-opacity:1" />
      <path
         transform="matrix(0.91722511,0,0,0.91722511,60.391628,16.637154)"
         inkscape:connector-curvature="0"
         id="path950"
         d="m 729.5891,100.64025 a 6.8536343,6.8536343 0 0 0 -6.8539,6.85333 6.8536343,6.8536343 0 0 0 6.8539,6.85384 6.8536343,6.8536343 0 0 0 6.8533,-6.85384 6.8536343,6.8536343 0 0 0 -6.8533,-6.85333 z m 0,27.34045 c -3.7851,0 -6.8534,3.06823 -6.8534,6.85333 v 14.43478 c 0,3.78508 3.0683,6.85384 6.8534,6.85384 3.7851,0 6.8538,-3.06876 6.8538,-6.85384 v -14.43478 c 0,-3.7851 -3.0687,-6.85333 -6.8538,-6.85333 z m 26.5585,18.38389 a 6.8536343,6.8536343 0 0 0 -6.8538,6.85384 6.8536343,6.8536343 0 0 0 6.8538,6.85333 6.8536343,6.8536343 0 0 0 6.8539,-6.85333 6.8536343,6.8536343 0 0 0 -6.8539,-6.85384 z m -62.3124,22.72367 a 6.8536343,6.8536343 0 0 0 -6.8539,6.85333 6.8536343,6.8536343 0 0 0 6.8539,6.85385 6.8536343,6.8536343 0 0 0 6.8538,-6.85385 6.8536343,6.8536343 0 0 0 -6.8538,-6.85333 z m 35.7544,0.66715 a 6.8536343,6.8536343 0 0 0 -6.8539,6.85384 6.8536343,6.8536343 0 0 0 6.8539,6.85385 6.8536343,6.8536343 0 0 0 6.8533,-6.85385 6.8536343,6.8536343 0 0 0 -6.8533,-6.85384 z m -0.1886,27.342 c -3.3028,0.0484 -6.4566,1.38153 -8.7928,3.71656 l -78.8505,78.85152 c -7.9961,8.00073 -2.3327,21.6754 8.9788,21.67982 h 157.7032 c 11.312,-0.003 16.9767,-13.67855 8.9802,-21.67982 l -78.8515,-78.85152 c -2.4281,-2.42693 -5.7354,-3.76761 -9.168,-3.71656 z m 0.7482,8.51369 v 0 c 0.4485,0 0.8969,0.044 1.3385,0.13074 1.4334,0.202 2.8158,0.85351 3.9181,1.95595 l 74.9995,74.99956 c 2.6995,2.6994 2.6995,7.07622 0,9.77563 -2.699,2.69939 -7.0755,2.69939 -9.7751,0 l -70.3275,-70.32749 -11.8003,11.80031 c -2.6993,2.69937 -7.076,2.6993 -9.7756,0 -2.6992,-2.69951 -2.6988,-7.07626 0,-9.77563 l 16.5344,-16.53439 c 1.3498,-1.34968 3.1186,-2.02467 4.8875,-2.02468 z m 55.2437,1.29294 a 6.8536343,6.8536343 0 0 0 -6.8533,6.85385 6.8536343,6.8536343 0 0 0 6.8533,6.85333 6.8536343,6.8536343 0 0 0 6.8538,-6.85333 6.8536343,6.8536343 0 0 0 -6.8538,-6.85385 z m -115.8803,12.52999 a 6.8536343,6.8536343 0 0 0 -6.8538,6.85384 6.8536343,6.8536343 0 0 0 6.8538,6.85333 6.8536343,6.8536343 0 0 0 6.8534,-6.85333 6.8536343,6.8536343 0 0 0 -6.8534,-6.85384 z m 27.0614,18.73839 a 6.8536343,6.8536343 0 0 1 6.8534,6.85333 6.8536343,6.8536343 0 0 1 -6.8534,6.85384 6.8536343,6.8536343 0 0 1 -6.8538,-6.85384 6.8536343,6.8536343 0 0 1 6.8538,-6.85333 z m -27.4784,26.01701 a 6.8536343,6.8536343 0 0 1 6.8538,6.85333 6.8536343,6.8536343 0 0 1 -6.8538,6.85385 6.8536343,6.8536343 0 0 1 -6.8533,-6.85385 6.8536343,6.8536343 0 0 1 6.8533,-6.85333 z"
         style="opacity:0.90700001;fill:#000000;fill-opacity:1;stroke:none;stroke-width:13.70695019;stroke-linecap:round;stroke-linejoin:round;stroke-miterlimit:4;stroke-dasharray:none;stroke-opacity:1;filter:url(#filter5229)" />
      <path
         style="opacity:1;fill:#ffffff;fill-opacity:1;stroke:none;stroke-width:12.57235909;stroke-linecap:round;stroke-linejoin:round;stroke-miterlimit:4;stroke-dasharray:none;stroke-opacity:1"
         d="m 729.58907,108.94692 a 6.2863255,6.2863255 0 0 0 -6.28657,6.28605 6.2863255,6.2863255 0 0 0 6.28657,6.28651 6.2863255,6.2863255 0 0 0 6.28602,-6.28651 6.2863255,6.2863255 0 0 0 -6.28602,-6.28605 z m 0,25.07735 c -3.47179,0 -6.28611,2.81425 -6.28611,6.28604 v 13.23995 c 0,3.47177 2.81432,6.28651 6.28611,6.28651 3.47179,0 6.28648,-2.81474 6.28648,-6.28651 v -13.23995 c 0,-3.47179 -2.81469,-6.28604 -6.28648,-6.28604 z m 24.36013,16.86216 a 6.2863255,6.2863255 0 0 0 -6.28648,6.28652 6.2863255,6.2863255 0 0 0 6.28648,6.28604 6.2863255,6.2863255 0 0 0 6.28657,-6.28604 6.2863255,6.2863255 0 0 0 -6.28657,-6.28652 z m -57.1545,20.84272 a 6.2863255,6.2863255 0 0 0 -6.28657,6.28605 6.2863255,6.2863255 0 0 0 6.28657,6.28652 6.2863255,6.2863255 0 0 0 6.28648,-6.28652 6.2863255,6.2863255 0 0 0 -6.28648,-6.28605 z m 32.79483,0.61193 a 6.2863255,6.2863255 0 0 0 -6.28657,6.28651 6.2863255,6.2863255 0 0 0 6.28657,6.28653 6.2863255,6.2863255 0 0 0 6.28602,-6.28653 6.2863255,6.2863255 0 0 0 -6.28602,-6.28651 z m -0.17299,25.07877 c -3.02941,0.0444 -5.92215,1.26717 -8.06497,3.40892 l -72.32366,72.32459 c -7.33423,7.33848 -2.13961,19.88123 8.23558,19.88528 h 144.64933 c 10.37565,-0.003 15.57146,-12.54631 8.23687,-19.88528 l -72.32458,-72.32459 c -2.22711,-2.22604 -5.26065,-3.45575 -8.40912,-3.40892 z m 0.68627,7.80897 v 0 c 0.41138,0 0.82266,0.0404 1.22771,0.11992 1.31475,0.18528 2.58272,0.78286 3.59378,1.79404 l 68.79142,68.79148 c 2.47605,2.47596 2.47605,6.49049 0,8.96646 -2.47559,2.47594 -6.48983,2.47594 -8.96597,0 l -64.50615,-64.50614 -10.82353,10.82354 c -2.47586,2.47593 -6.49028,2.47586 -8.96642,0 -2.47578,-2.47606 -2.47541,-6.49053 0,-8.96646 l 15.16576,-15.16575 c 1.23807,-1.23796 2.86046,-1.85708 4.48294,-1.85709 z m 50.67091,1.18592 a 6.2863255,6.2863255 0 0 0 -6.28602,6.28652 6.2863255,6.2863255 0 0 0 6.28602,6.28605 6.2863255,6.2863255 0 0 0 6.28648,-6.28605 6.2863255,6.2863255 0 0 0 -6.28648,-6.28652 z M 674.4854,217.90756 a 6.2863255,6.2863255 0 0 0 -6.28648,6.28651 6.2863255,6.2863255 0 0 0 6.28648,6.28605 6.2863255,6.2863255 0 0 0 6.28611,-6.28605 6.2863255,6.2863255 0 0 0 -6.28611,-6.28651 z m 24.82139,17.18732 a 6.2863255,6.2863255 0 0 1 6.28611,6.28605 6.2863255,6.2863255 0 0 1 -6.28611,6.28651 6.2863255,6.2863255 0 0 1 -6.28647,-6.28651 6.2863255,6.2863255 0 0 1 6.28647,-6.28605 z m -25.20387,23.86345 a 6.2863255,6.2863255 0 0 1 6.28647,6.28605 6.2863255,6.2863255 0 0 1 -6.28647,6.28652 6.2863255,6.2863255 0 0 1 -6.28602,-6.28652 6.2863255,6.2863255 0 0 1 6.28602,-6.28605 z"
         id="path952"
         inkscape:connector-curvature="0" />
    </g>
  </g>
</svg>
